<?xml version="1.0" encoding="UTF-8" standalone="no"?>
<svg width="19px" height="26px" viewBox="0 0 19 26" version="1.1" xmlns="http://www.w3.org/2000/svg" xmlns:xlink="http://www.w3.org/1999/xlink" xmlns:sketch="http://www.bohemiancoding.com/sketch/ns">
    <!-- Generator: Sketch 3.4.3 (16618) - http://www.bohemiancoding.com/sketch -->
    <title>Shape</title>
    <desc>Created with Sketch.</desc>
    <defs></defs>
    <g id="Desktop-Screens" stroke="none" stroke-width="1" fill="none" fill-rule="evenodd" sketch:type="MSPage">
        <g id="SU01-10-D:--MIC-CHECK-1" sketch:type="MSArtboardGroup" transform="translate(-711.000000, -588.000000)" fill="#F64C23">
            <g id="0:00-+-Icon---Record" sketch:type="MSLayerGroup" transform="translate(678.000000, 513.000000)">
                <g id="Icon---Record" transform="translate(0.000000, 46.000000)" sketch:type="MSShapeGroup">
                    <g id="mic" transform="translate(33.000000, 29.000000)">
                        <path d="M9.4,16.3263158 C11.6828571,16.3263158 13.4285714,14.5576316 13.4285714,12.2447368 L13.4285714,4.08157895 C13.4285714,1.76868421 11.6828571,0 9.4,0 C7.11714286,0 5.37142857,1.76868421 5.37142857,4.08157895 L5.37142857,12.2447368 C5.37142857,14.5576316 7.11714286,16.3263158 9.4,16.3263158 L9.4,16.3263158 Z M16.5171429,12.2447368 C16.5171429,16.3263158 13.16,19.1834211 9.4,19.1834211 C5.64,19.1834211 2.28285714,16.3263158 2.28285714,12.2447368 L0,12.2447368 C0,16.8705263 3.62571429,20.68 8.05714286,21.3602632 L8.05714286,25.85 L10.7428571,25.85 L10.7428571,21.3602632 C15.1742857,20.68 18.8,16.8705263 18.8,12.2447368 L16.5171429,12.2447368 L16.5171429,12.2447368 Z" id="Shape"></path>
                    </g>
                </g>
            </g>
        </g>
    </g>
</svg>