<?xml version="1.0" encoding="UTF-8" standalone="no"?>
<svg width="59px" height="59px" viewBox="0 0 59 59" version="1.1" xmlns="http://www.w3.org/2000/svg" xmlns:xlink="http://www.w3.org/1999/xlink" xmlns:sketch="http://www.bohemiancoding.com/sketch/ns">
    <!-- Generator: Sketch 3.4.2 (15857) - http://www.bohemiancoding.com/sketch -->
    <title>Oval 1 + mic</title>
    <desc>Created with Sketch.</desc>
    <defs></defs>
    <g id="Desktop-Screens" stroke="none" stroke-width="1" fill="none" fill-rule="evenodd" sketch:type="MSPage">
        <g id="TE01-01-D:--MODULE-INSTRUCTIONS" sketch:type="MSArtboardGroup" transform="translate(-690.000000, -210.000000)">
            <g id="Oval-1-+-mic" sketch:type="MSLayerGroup" transform="translate(690.000000, 210.000000)">
                <circle id="Oval-1" fill="#2F70A1" sketch:type="MSShapeGroup" cx="29.5" cy="29.5" r="29.5"></circle>
                <g id="mic" transform="translate(18.000000, 12.000000)" fill="#FFFFFF" sketch:type="MSShapeGroup">
                    <path d="M17.1428571,16.6315789 L17.1428571,6.21052632 C17.1428571,3.25789474 14.9142857,1 12,1 C9.08571429,1 6.85714286,3.25789474 6.85714286,6.21052632 L6.85714286,16.6315789 C6.85714286,19.5842105 9.08571429,21.8421053 12,21.8421053 C14.9142857,21.8421053 17.1428571,19.5842105 17.1428571,16.6315789 Z M21.0857143,16.6315789 C21.0857143,21.8421053 16.8,25.4894737 12,25.4894737 C7.2,25.4894737 2.91428571,21.8421053 2.91428571,16.6315789 L0,16.6315789 C0,22.5368421 4.62857143,27.4 10.2857143,28.2684211 L10.2857143,34 L13.7142857,34 L13.7142857,28.2684211 C19.3714286,27.4 24,22.5368421 24,16.6315789 L21.0857143,16.6315789 L21.0857143,16.6315789 Z" id="Shape"></path>
                </g>
            </g>
        </g>
    </g>
</svg>