<?xml version="1.0" encoding="UTF-8" standalone="no"?>
<svg width="25px" height="34px" viewBox="0 0 25 34" version="1.1" xmlns="http://www.w3.org/2000/svg" xmlns:xlink="http://www.w3.org/1999/xlink" xmlns:sketch="http://www.bohemiancoding.com/sketch/ns">
    <!-- Generator: Sketch 3.4.2 (15857) - http://www.bohemiancoding.com/sketch -->
    <title>Icon - Microphone</title>
    <desc>Created with Sketch.</desc>
    <defs></defs>
    <g id="Desktop-Screens" stroke="none" stroke-width="1" fill="none" fill-rule="evenodd" sketch:type="MSPage">
        <g id="SU01-20-D:--ALLOW-MIC" sketch:type="MSArtboardGroup" transform="translate(-435.000000, -261.000000)" fill="#000000">
            <g id="Icon---Microphone" sketch:type="MSLayerGroup" transform="translate(426.000000, 256.000000)">
                <path d="M21.5013398,26.4308683 C24.5373795,26.4308683 26.8590569,24.1091909 26.8590569,21.0731512 L26.8590569,10.3577171 C26.8590569,7.3216774 24.5373795,5 21.5013398,5 C18.4653002,5 16.1436228,7.3216774 16.1436228,10.3577171 L16.1436228,21.0731512 C16.1436228,24.1091909 18.4653002,26.4308683 21.5013398,26.4308683 L21.5013398,26.4308683 Z M19.358253,10.1791265 C19.358253,8.92899252 20.2512059,8.03603968 21.5013398,8.03603968 C22.7514738,8.03603968 23.6444267,8.92899252 23.6444267,10.1791265 L23.6444267,21.2517418 C23.6444267,22.5018758 22.7514738,23.3948286 21.5013398,23.3948286 C20.2512059,23.3948286 19.358253,22.5018758 19.358253,21.2517418 L19.358253,10.1791265 L19.358253,10.1791265 Z M30.96664,21.0731512 C30.96664,26.4308683 26.5018758,30.1812703 21.5013398,30.1812703 C16.5008039,30.1812703 12.0360397,26.4308683 12.0360397,21.0731512 L9,21.0731512 C9,27.1452306 13.8219454,32.1457665 19.7154342,33.0387194 L19.7154342,38.9322081 L23.2872455,38.9322081 L23.2872455,33.0387194 C29.1807343,32.1457665 34.0026797,27.1452306 34.0026797,21.0731512 L30.96664,21.0731512 L30.96664,21.0731512 Z" id="Shape" sketch:type="MSShapeGroup"></path>
            </g>
        </g>
    </g>
</svg>