<?xml version="1.0" encoding="UTF-8" standalone="no"?>
<svg width="17px" height="19px" viewBox="0 0 17 19" version="1.1" xmlns="http://www.w3.org/2000/svg" xmlns:xlink="http://www.w3.org/1999/xlink" xmlns:sketch="http://www.bohemiancoding.com/sketch/ns">
    <!-- Generator: Sketch 3.4.2 (15857) - http://www.bohemiancoding.com/sketch -->
    <title>Fill 1 + Fill 2</title>
    <desc>Created with Sketch.</desc>
    <defs></defs>
    <g id="Desktop-Screens" stroke="none" stroke-width="1" fill="none" fill-rule="evenodd" sketch:type="MSPage">
        <g id="SU01-01-D:--HEADSET" sketch:type="MSArtboardGroup" transform="translate(-923.000000, -790.000000)" fill="#4DAFD9">
            <g id="Fill-1-+-Fill-2" sketch:type="MSLayerGroup" transform="translate(923.000000, 790.000000)">
                <path d="M15.7857143,0 L1.21428571,0 C0.542785714,0 0,0.5308125 0,1.1875 L0,10.6875 C0,15.278375 3.80557143,19 8.5,19 C13.1944286,19 17,15.278375 17,10.6875 L17,1.1875 C17,0.5308125 16.4572143,0 15.7857143,0 L15.7857143,0 Z M15.7857143,10.6875 C15.7857143,14.622875 12.5241429,17.8125 8.5,17.8125 C4.47707143,17.8125 1.21428571,14.622875 1.21428571,10.6875 L1.21428571,4.75 L15.7857143,4.75 L15.7857143,10.6875 L15.7857143,10.6875 Z M1.21428571,1.1875 L15.7857143,1.1875 L15.7857143,3.5625 L1.21428571,3.5625 L1.21428571,1.1875 Z" id="Fill-1" sketch:type="MSShapeGroup"></path>
                <path d="M6.28028571,13.7546875 C6.28028571,13.7546875 6.23657143,13.991 6.34828571,14.06225 C6.46121429,14.1323125 6.70164286,14.0396875 6.70164286,14.0396875 L8.56557143,12.972125 L10.3772857,14.067 C10.3772857,14.067 10.6165,14.1489375 10.7209286,14.06225 C10.8253571,13.974375 10.7622143,13.736875 10.7622143,13.736875 L10.2133571,11.5198125 L12.0032143,10.145875 C12.0032143,10.145875 12.1428571,10.017625 12.1428571,9.9143125 C12.1428571,9.811 11.9497857,9.780125 11.9497857,9.780125 L9.6475,9.5509375 L8.84242857,7.5416875 C8.84242857,7.5416875 8.70278571,7.3125 8.56557143,7.3125 C8.42835714,7.3125 8.28992857,7.5488125 8.28992857,7.5488125 L7.46542857,9.5735 L5.2105,9.773 C5.2105,9.773 4.97371429,9.789625 4.97371429,9.9380625 C4.97371429,10.0865 5.17042857,10.267 5.17042857,10.267 L6.96635714,11.4746875 L6.28028571,13.7546875 Z" id="Fill-2" sketch:type="MSShapeGroup"></path>
            </g>
        </g>
    </g>
</svg>