<?xml version="1.0" encoding="UTF-8" standalone="no"?>
<svg width="40px" height="40px" viewBox="0 0 40 40" version="1.1" xmlns="http://www.w3.org/2000/svg" xmlns:xlink="http://www.w3.org/1999/xlink" xmlns:sketch="http://www.bohemiancoding.com/sketch/ns">
    <!-- Generator: Sketch 3.4.2 (15857) - http://www.bohemiancoding.com/sketch -->
    <title>Icon - Microphone poor</title>
    <desc>Created with Sketch.</desc>
    <defs></defs>
    <g id="Desktop-Screens" stroke="none" stroke-width="1" fill="none" fill-rule="evenodd" sketch:type="MSPage">
        <g id="SU01-23-D:--POOR-RECORDING" sketch:type="MSArtboardGroup" transform="translate(-428.000000, -470.000000)" fill="#000000">
            <g id="Icon---Microphone-poor" sketch:type="MSLayerGroup" transform="translate(426.000000, 468.000000)">
                <g id="Oval-8-+-Imported-Layers" transform="translate(2.000000, 2.000000)" sketch:type="MSShapeGroup">
                    <path d="M17.2364543,7.33699639 C17.491856,8.26816522 17.7007202,9.05206133 17.9191136,9.8208925 C18.2152909,10.8637496 18.486205,11.960373 18.8312465,12.907386 C19.0428809,13.488425 19.3472576,14.0112821 19.654072,14.2512821 C20.8596122,15.1951782 22.081662,16.0245289 23.3003878,16.8749185 C23.4838781,17.0029704 23.6808864,17.0460873 23.8731302,17.0777756 C24.2840997,17.1458276 24.3512465,17.0619315 24.4537396,16.1058276 C24.6176177,14.5769964 24.7552355,13.0328405 24.9027147,11.494399 C25.0704709,9.74504834 25.234349,7.99361977 25.4059834,6.24634704 C25.4382271,5.91881457 25.4987258,5.60634704 25.5782825,5.28400938 C26.0381163,8.24452886 26.260277,11.3658276 26.7467036,14.2853081 C27.1694183,13.0549185 27.494626,11.8229704 27.8199446,10.5912821 C28.0580609,11.2502431 28.2162881,11.8769964 28.341385,12.5380354 C28.6663712,14.2554379 28.9696399,15.9951782 29.2959557,17.7112821 C29.4558449,18.5518016 29.5829363,18.6146587 29.9123546,18.0936198 C30.1186704,17.7671263 30.3240997,17.4299834 30.5116898,17.048425 C30.6448753,16.7772561 30.7372853,16.8232302 30.8701385,17.041412 C31.1644321,17.5242691 31.4751247,17.9520613 31.7728532,18.4237496 C31.9847091,18.7593341 32.1347368,18.6850483 32.2696953,18.1666068 C32.5531302,17.0777756 32.8457618,16.0019315 33.1417175,14.9315418 C33.2711357,14.4634899 33.4181717,14.0221912 33.5912465,13.4572561 C33.706482,13.8292042 33.8049861,14.100373 33.8812188,14.4024509 C34.0782271,15.1827107 34.2511911,15.9980354 34.4599446,16.7601133 C34.7607756,17.8582951 35.1955679,18.6302431 35.6730194,19.268425 C35.7552355,19.3782951 35.8647091,19.3962172 35.9632133,19.4162172 C37.047313,19.6369964 38.1320776,19.8440094 39.2159557,20.0705029 C39.3706371,20.1027107 39.5358449,20.1556977 39.6703601,20.3169964 C39.774072,20.4408925 39.8838781,20.7328405 39.9007202,20.9834899 C39.9104709,21.1289444 39.7480332,21.474399 39.6521884,21.4995938 C39.0298061,21.6624509 38.4048753,21.7798535 37.7798338,21.8782951 C37.0712465,21.9894639 36.3593352,22.0141392 35.6539612,22.1879055 C35.4487535,22.2382951 35.2081994,22.568425 35.0746814,22.9466068 C34.6590582,24.1234899 34.2860942,25.3832302 33.899169,26.6149185 C33.8402216,26.8024509 33.7942382,27.0125808 33.7160111,27.3136198 C33.5499169,26.848425 33.4034349,26.4468665 33.2612742,26.0372561 C32.9934626,25.2655678 32.7258726,24.4931003 32.4624931,23.7128405 C32.3022715,23.2382951 32.1042659,22.9653081 31.8412188,23.0336198 C31.1370637,23.2159574 30.4302493,23.3637496 29.7314127,23.6255678 C29.5460388,23.6949185 29.3337396,24.0395938 29.2223823,24.4058276 C28.8159557,25.7421912 28.4448753,27.1380354 28.0648199,28.5180354 C27.8712465,29.220373 27.819723,29.241412 27.607867,28.5411522 C27.4053186,27.8715418 27.2233795,27.167386 27.0248199,26.4907626 C26.9272022,26.1575159 26.81241,25.8520613 26.6560665,25.3871263 C26.5768421,25.9962172 26.5042659,26.4455678 26.460277,26.9099834 C26.2148476,29.5034899 25.9790582,32.1021912 25.7325208,34.6951782 C25.6975069,35.0637496 25.6218283,35.4110224 25.5648753,35.768425 C25.4391136,35.5369964 25.3741828,35.2899834 25.3505817,35.0229704 C25.1432687,32.6741392 24.9491413,30.3193341 24.7382825,27.9725808 C24.658615,27.0860873 24.5653186,26.2006328 24.4425485,25.3427107 C24.2583934,24.054399 23.9971191,23.7229704 23.4222715,24.0645289 C23.04,24.2918016 22.6690305,24.6276457 22.2963989,24.9375159 C22.0795568,25.1177756 21.8661496,25.3258276 21.6570637,25.5510224 C21.0572853,26.1969964 20.4593906,26.2660873 19.8334626,25.7092042 C19.3713019,25.2977756 19.3095845,25.3585548 19.0350139,26.3388146 C18.5492521,28.0728405 18.0874238,29.8437496 17.612964,31.5954379 C17.5000554,32.0123211 17.3767313,32.4138795 17.2282548,32.9258276 C17.0015512,31.8985548 16.7998892,30.9645289 16.5903601,30.0401133 C16.3222161,28.8575159 16.0500831,27.6793341 15.774072,26.5066068 C15.7077008,26.2240094 15.6216066,25.9660873 15.540831,25.7029704 C15.3129086,24.960373 15.0048753,24.6686847 14.646205,25.0486847 C14.1349584,25.5902431 13.7190028,25.2593341 13.3257618,24.4627107 C13.2074238,24.2229704 13.0768975,24.0149185 12.9482548,23.8053081 C12.6075346,23.2497237 12.5268698,23.2359574 12.3235457,24.1055678 C12.0550693,25.254399 11.7663158,26.4237496 11.6173961,27.6702431 C11.2422161,30.8092042 10.9418283,33.9972561 10.6083102,37.1637496 C10.5488089,37.7297237 10.4713573,38.2850483 10.4077562,38.8486847 C10.3458172,39.3977756 10.2169529,39.8577756 9.9666482,39.85336 C9.70825485,39.8489444 9.63756233,39.2767367 9.59124654,38.7964769 C9.3901385,36.7102431 9.20487535,34.6154379 9.00786704,32.5271263 C8.81096953,30.4398535 8.61595568,28.3512821 8.40155125,26.2738795 C8.31390582,25.4242691 8.29407202,25.4738795 7.91811634,25.6040094 C7.5101385,25.7450483 7.09639889,25.9027107 6.6865374,25.8832302 C6.04454294,25.8523211 5.62947368,24.7718016 5.2601662,23.7453081 C4.88144044,22.6925808 4.44554017,22.3276457 3.87889197,22.2447886 C2.7566759,22.0811522 1.63822715,21.7671263 0.51933518,21.4910224 C0.353684211,21.4502431 0.193905817,21.2782951 0,21.1455678 C0.144930748,20.4445289 0.382936288,20.2977756 0.610747922,20.2190743 C1.22149584,20.007386 1.83479224,19.8271263 2.44919668,19.6842691 C3.16520776,19.5180354 3.88432133,19.4245289 4.59966759,19.2458276 C4.70448753,19.2198535 4.83911357,18.9442691 4.88631579,18.7045289 C5.16775623,17.2769964 5.57739612,16.1016717 6.10260388,15.1419315 C6.73950139,13.9780354 7.38282548,13.8988146 8.06914127,14.8764769 C8.13152355,14.9653081 8.19556787,15.0476457 8.29551247,15.1821912 C8.42448753,13.8798535 8.54736842,12.6242691 8.6733518,11.3702431 C9.00498615,8.06920418 9.33551247,4.76764574 9.67368421,1.47024314 C9.71401662,1.07673665 9.78171745,0.684528859 9.86825485,0.334658729 C9.98160665,-0.12404257 10.1083657,-0.111834777 10.2080886,0.37517821 C10.307036,0.859074314 10.3904709,1.37180159 10.4448753,1.89232107 C10.7647645,4.95595743 11.0662604,8.0299834 11.3904709,11.0910224 C11.5653186,12.7408925 11.8361219,14.29336 12.3449307,15.5658276 C12.6886427,16.4258276 12.7924654,16.5380354 13.2204986,15.9266068 C13.714903,15.220373 14.221385,15.1099834 14.760554,15.4619315 C14.9911357,15.6123211 15.1669806,15.4645289 15.3366205,15.0847886 C15.9022715,13.8182951 16.2620499,12.2380354 16.5925762,10.614399 C16.7591136,9.79647691 16.9041551,8.95439899 17.0616066,8.1260873 C17.1017175,7.91517821 17.152133,7.71517821 17.2364543,7.33699639 L19.1666667,21.3793103" id="Imported-Layers"></path>
                </g>
            </g>
        </g>
    </g>
</svg>