<?xml version="1.0" encoding="UTF-8" standalone="no"?>
<svg width="60px" height="60px" viewBox="0 0 60 60" version="1.1" xmlns="http://www.w3.org/2000/svg" xmlns:xlink="http://www.w3.org/1999/xlink" xmlns:sketch="http://www.bohemiancoding.com/sketch/ns">
    <!-- Generator: Sketch 3.4.2 (15857) - http://www.bohemiancoding.com/sketch -->
    <title>Icon - Audio Copy</title>
    <desc>Created with Sketch.</desc>
    <defs></defs>
    <g id="Desktop-Screens" stroke="none" stroke-width="1" fill="none" fill-rule="evenodd" sketch:type="MSPage">
        <g id="SU01-02-D:--SPEAKER-CHECK" sketch:type="MSArtboardGroup" transform="translate(-684.000000, -208.000000)">
            <g id="Icon---Audio-Copy" sketch:type="MSLayerGroup" transform="translate(684.000000, 208.000000)">
                <circle id="Oval-8" fill="#FDCD13" sketch:type="MSShapeGroup" cx="30" cy="30" r="30"></circle>
                <path d="M27.6837452,20.3193224 C27.9902271,20.9944198 28.2408643,21.5627445 28.5029363,22.1201471 C28.858349,22.8762185 29.183446,23.6712704 29.5974958,24.3578549 C29.8514571,24.7791081 30.2167091,25.1581795 30.5848864,25.3321795 C32.0315346,26.0165042 33.4979945,26.6177834 34.9604654,27.2343159 C35.1806537,27.3271536 35.4170637,27.3584133 35.6477562,27.3813873 C36.1409197,27.430725 36.2214958,27.3699003 36.3444875,26.676725 C36.5411413,25.5683224 36.7062825,24.4488094 36.8832576,23.3334393 C37.0845651,22.06516 37.2812188,20.7953743 37.4871801,19.5286016 C37.5258726,19.2911406 37.5984709,19.0646016 37.6939391,18.8309068 C38.2457396,20.9772834 38.5123324,23.240225 39.0960443,25.3568484 C39.6033019,24.4648159 39.9935512,23.5716536 40.3839335,22.6786795 C40.6696731,23.1564263 40.8595457,23.6108224 41.009662,24.0900756 C41.3996454,25.3351925 41.7635679,26.5965042 42.1551468,27.8406795 C42.3470139,28.4500562 42.4995235,28.4956276 42.8948255,28.1178743 C43.1424044,27.8811665 43.3889197,27.636738 43.6140277,27.3601081 C43.7738504,27.1635107 43.8847424,27.1968419 44.0441662,27.3550237 C44.3973186,27.7050951 44.7701496,28.0152445 45.1274238,28.3572185 C45.381651,28.6005172 45.5616842,28.54666 45.7236343,28.1707899 C46.0637562,27.3813873 46.4149141,26.6014003 46.7700609,25.8253678 C46.9253629,25.4860302 47.1018061,25.1660886 47.3094958,24.7565107 C47.4477784,25.026173 47.5659834,25.2227704 47.6574626,25.4417769 C47.8938726,26.0074652 48.1014294,26.5985756 48.3519335,27.1510821 C48.7129307,27.9472639 49.2346814,28.5069263 49.8076233,28.9696081 C49.9062825,29.0492639 50.037651,29.0622574 50.155856,29.0767574 C51.4567756,29.2368224 52.7584931,29.3869068 54.0591468,29.5511146 C54.2447645,29.5744652 54.4430139,29.6128808 54.6044321,29.7298224 C54.7288864,29.8196471 54.8606537,30.0313094 54.8808643,30.2130302 C54.8925651,30.3184847 54.6976399,30.5689393 54.582626,30.5872055 C53.8357673,30.7052769 53.0858504,30.7903938 52.3358006,30.8617639 C51.4854958,30.9423613 50.6312022,30.960251 49.7847535,31.0862315 C49.5385042,31.1227639 49.2498393,31.3621081 49.0896177,31.6362899 C48.5908698,32.4895302 48.143313,33.4028419 47.6790028,34.2958159 C47.6082659,34.4317769 47.5530859,34.5841211 47.4592133,34.8023743 C47.2599003,34.4651081 47.0841219,34.1739782 46.9135291,33.8770107 C46.5921551,33.3175367 46.2710471,32.7574977 45.9549917,32.1918094 C45.7627258,31.8477639 45.5251191,31.6498484 45.2094626,31.6993743 C44.3644765,31.8315691 43.5162992,31.9387185 42.6776953,32.1285367 C42.4552465,32.1788159 42.2004875,32.4287055 42.0668587,32.694225 C41.5791468,33.6630886 41.1338504,34.6750756 40.6777839,35.6755756 C40.4454958,36.1847704 40.3836676,36.2000237 40.1294404,35.6923354 C39.8863823,35.2068678 39.6680554,34.6963549 39.4297839,34.2058029 C39.3126427,33.964199 39.174892,33.7427445 38.9872798,33.4056665 C38.8922105,33.8472574 38.8051191,34.1730367 38.7523324,34.509738 C38.4578172,36.3900302 38.1748698,38.2740886 37.8790249,40.1540042 C37.8370083,40.4212185 37.7461939,40.6729912 37.6778504,40.9321081 C37.5269363,40.7643224 37.4490194,40.585238 37.4206981,40.3916536 C37.1719224,38.688751 36.9389695,36.9815172 36.6859391,35.2801211 C36.590338,34.6374133 36.4783823,33.9954587 36.3310582,33.3734652 C36.110072,32.4394393 35.7965429,32.1991536 35.1067258,32.4467834 C34.648,32.6115562 34.2028366,32.8550432 33.7556787,33.079699 C33.4954681,33.2103873 33.2393795,33.361225 32.9884765,33.5244912 C32.2687424,33.9928224 31.5512687,34.0429133 30.8001551,33.639173 C30.2455623,33.3408873 30.1715014,33.3849523 29.8420166,34.0956406 C29.2591025,35.3528094 28.7049086,36.6367185 28.1355568,37.9066925 C28.0000665,38.2089328 27.8520776,38.5000626 27.6739058,38.871225 C27.4018615,38.1264523 27.159867,37.4492834 26.9084321,36.7790821 C26.5866593,35.921699 26.2600997,35.0675172 25.9288864,34.2172899 C25.849241,34.0124068 25.745928,33.8254133 25.6489972,33.6346536 C25.3754903,33.0962704 25.0058504,32.8847964 24.575446,33.1602964 C23.9619501,33.5529263 23.4628033,33.3130172 22.9909141,32.7354652 C22.8489086,32.5616536 22.692277,32.4108159 22.5379058,32.2588484 C22.1290416,31.8560497 22.0322438,31.8460691 21.7882548,32.4765367 C21.4660831,33.3094393 21.1195789,34.1572185 20.9408753,35.0609263 C20.4906593,37.336673 20.1301939,39.6480107 19.7299723,41.9437185 C19.6585706,42.3540497 19.5656288,42.75666 19.4893075,43.1652964 C19.4149806,43.5633873 19.2603435,43.8968873 18.9599778,43.893686 C18.6499058,43.8904847 18.5650748,43.4756341 18.5094958,43.1274458 C18.2681662,41.6149263 18.0458504,40.0961925 17.8094404,38.5821665 C17.5731634,37.0688938 17.3391468,35.5546795 17.0818615,34.0485626 C16.976687,33.4325951 16.9528864,33.4685626 16.5017396,33.5629068 C16.0121662,33.66516 15.5156787,33.7794652 15.0238449,33.7653419 C14.2534515,33.7429328 13.7553684,32.9595562 13.3121994,32.2153484 C12.8577285,31.4521211 12.3346482,31.1875432 11.6546704,31.1274717 C10.3080111,31.0088354 8.96587258,30.7811665 7.62320222,30.5809912 C7.42442105,30.5514263 7.23268698,30.4267639 7,30.3305367 C7.1739169,29.8222834 7.45952355,29.7158873 7.73289751,29.6588289 C8.46579501,29.5053549 9.20175069,29.3746665 9.93903601,29.2710951 C10.7982493,29.1505756 11.6611856,29.0827834 12.5196011,28.953225 C12.645385,28.9343938 12.8069363,28.7345951 12.8635789,28.5607834 C13.2013075,27.5258224 13.6928753,26.673712 14.3231247,25.9779003 C15.0874017,25.1340756 15.8593906,25.0766406 16.6829695,25.7854458 C16.7578283,25.8498484 16.8346814,25.9095432 16.954615,26.0070886 C17.109385,25.0628938 17.2568421,24.1525951 17.4080222,23.2434263 C17.8059834,20.850173 18.202615,18.4565432 18.6084211,16.0659263 C18.6568199,15.7806341 18.7380609,15.4962834 18.8419058,15.2426276 C18.977928,14.9100691 19.1300388,14.9189198 19.2497064,15.2720042 C19.3684432,15.6228289 19.4685651,15.9945562 19.5338504,16.3719328 C19.9177175,18.5930691 20.2795125,20.821738 20.6685651,23.0409912 C20.8783823,24.2371471 21.2033463,25.362686 21.8139169,26.285225 C22.2263712,26.908725 22.3509584,26.9900756 22.8645983,26.5467899 C23.4578837,26.0347704 24.065662,25.954738 24.7126648,26.2099003 C24.9893629,26.3189328 25.2003767,26.2117834 25.4039446,25.9364717 C26.0827258,25.0182639 26.5144598,23.8725756 26.9110914,22.6954393 C27.1109363,22.1024458 27.2849861,21.4919393 27.473928,20.8914133 C27.5220609,20.7385042 27.5825596,20.5935042 27.6837452,20.3193224 L30,30.5" id="Imported-Layers" fill="#2F70A1" sketch:type="MSShapeGroup"></path>
            </g>
        </g>
    </g>
</svg>