<?xml version="1.0" encoding="UTF-8" standalone="no"?>
<svg width="60px" height="60px" viewBox="0 0 60 60" version="1.1" xmlns="http://www.w3.org/2000/svg" xmlns:xlink="http://www.w3.org/1999/xlink" xmlns:sketch="http://www.bohemiancoding.com/sketch/ns">
    <!-- Generator: Sketch 3.4.2 (15857) - http://www.bohemiancoding.com/sketch -->
    <title>Imported Layers</title>
    <desc>Created with Sketch.</desc>
    <defs></defs>
    <g id="Desktop-Screens" stroke="none" stroke-width="1" fill="none" fill-rule="evenodd" sketch:type="MSPage">
        <g id="SU01-01-D:--HEADSET" sketch:type="MSArtboardGroup" transform="translate(-690.000000, -208.000000)">
            <g id="Imported-Layers" sketch:type="MSLayerGroup" transform="translate(690.000000, 208.000000)">
                <path d="M0.025330045,29.6941245 C0.025330045,13.3972064 13.2366087,0.185927753 29.5332645,0.185927753 C45.8299202,0.185927753 59.0417235,13.3972064 59.0417235,29.6941245 C59.0417235,45.9907802 45.8299202,59.2023212 29.5332645,59.2023212 C13.2366087,59.2023212 0.025330045,45.9907802 0.025330045,29.6941245" id="Fill-1" fill="#FDCD13" sketch:type="MSShapeGroup"></path>
                <path d="M33.8051647,13.1329755 C33.7599884,13.0927608 33.724213,13.0838822 33.6860873,13.0716089 C32.9039896,12.6911359 32.2806615,12.5613521 31.788423,12.5691861 C25.2872189,11.2697809 22.8171478,15.3928333 21.9465255,17.7856086 C20.0694908,22.4716669 25.6159874,29.5848579 21.9465256,31.8266974 C21.9465256,31.8266974 21.4119832,33.7453649 26.1549688,33.9790802 L26.477731,32.5143769 C25.6569853,31.9257798 25.0973741,30.6994922 24.6936602,29.7419121 C24.6704193,29.6896852 24.6469172,29.6340635 24.6234151,29.5742637 C24.5923401,29.4995793 24.5596982,29.4217612 24.5304512,29.3517772 C24.2074278,28.4041201 23.885449,26.8772668 23.885449,26.8772668 C23.7431307,26.2508052 23.5540693,25.2611055 23.4898303,24.2071667 C23.8742202,23.4086174 25.3705208,20.1614101 26.1641085,16.4384158 C26.1641085,16.4384158 26.9874655,22.8403888 36.1835775,24.254432 C36.3180618,25.0629044 36.4246047,26.0515596 36.3802118,27.0036559 C36.2086465,28.8791237 35.2359205,30.961149 33.75346,32.2046714 L33.9715073,33.6779922 C38.7440012,33.4581169 38.7822015,31.5424342 38.7822015,31.5424342 C35.7583762,28.9262393 41.3811983,19.2994052 36.4248658,14.9802408 C35.4025243,14.0895111 34.537908,13.5050921 33.8051647,13.1329755 Z" id="Fill-2" fill="#5C5658" sketch:type="MSShapeGroup"></path>
                <path d="M35.6866386,39.8300595 L30.2049035,45.9027419 L30.2049035,46.1328014 L30.1027999,46.0197302 L30.0004352,46.1328014 L30.0004352,45.9027419 L21.7013202,36.7058465 L25.7269694,35.7388655 L26.4785144,32.4942695 C26.9712752,32.8227767 27.5005948,33.0857392 28.0515886,33.268011 L35.6866386,39.8300595" id="Fill-3" fill="#FCAB94" sketch:type="MSShapeGroup"></path>
                <path d="M38.5040186,36.7058465 L35.6866386,39.8300595 L28.0515886,33.268011 C28.6501088,33.4615117 29.2742202,33.5672711 29.9202669,33.5672711 C31.3215146,33.5672711 32.6318874,33.0708545 33.7594661,32.209633 L34.248571,35.6840273 L38.5040186,36.7058465" id="Fill-4" fill="#ED958A" sketch:type="MSShapeGroup"></path>
                <path d="M33.75346,32.2046714 C35.2359205,30.961149 36.2086465,28.8791237 36.3802118,27.0036559 C36.4246047,26.0515596 36.3180618,25.0629044 36.1835775,24.254432 C26.9874655,22.8403888 26.1641085,16.4384158 26.1641085,16.4384158 C25.3705208,20.1614101 23.8742202,23.4086174 23.4898303,24.2071667 C23.5540693,25.2611055 23.7431307,26.2508052 23.885449,26.8772668 C23.885449,26.8772668 24.2074278,28.4041201 24.5471638,29.3684898 C24.5419411,29.3630059 24.5356739,29.357261 24.5304512,29.3517772 C24.5596982,29.4217612 24.5923401,29.4995793 24.6234151,29.5742637 C24.6469172,29.6340635 24.6704193,29.6896852 24.6936602,29.7419121 C25.0775279,30.652488 25.6055419,31.7996518 26.3617873,32.4169737 C27.4238213,33.1499782 28.6339185,33.5667489 29.9192224,33.5667489 C31.318381,33.5667489 32.6282315,33.0724213 33.7550268,32.2143334 L33.75346,32.2046714" id="Fill-5" fill="#FCAB94" sketch:type="MSShapeGroup"></path>
                <path d="M29.9435079,30.1649499 C29.5698245,30.1649499 29.2483679,30.3754243 29.081503,30.6830408 C25.1670971,30.2793269 23.9175685,26.8785725 23.9175685,26.8785725 C23.9099956,26.8785725 24.2298854,28.4741042 24.535935,29.357261 C25.4250979,30.322414 26.8480197,31.3092413 29.0344988,31.5267663 C29.1828232,31.883476 29.5337879,32.133904 29.943769,32.133904 C30.487451,32.133904 30.928246,31.693109 30.928246,31.149427 C30.928246,30.605745 30.4871899,30.1649499 29.9435079,30.1649499 L60.4918033,34.1451991" id="Fill-6" fill="#000000" sketch:type="MSShapeGroup"></path>
                <path d="M44.363093,46.8052227 C44.7843029,37.4370231 36.623328,36.0597998 36.623328,36.0597998 L29.3559553,41.7345133 L22.13402,36.0597998 C22.13402,36.0597998 14.0242275,37.4370231 14.4428261,46.8052227 L44.363093,46.8052227" id="Fill-7" fill="#4DAFD9" sketch:type="MSShapeGroup"></path>
                <path d="M37.2973161,25.5347744 C37.2973161,26.2813579 36.6922675,26.8866676 35.945684,26.8866676 C35.1991005,26.8866676 34.5940519,26.2813579 34.5940519,25.5347744 C34.5940519,24.7884521 35.1991005,24.1834035 35.945684,24.1834035 C36.6922675,24.1834035 37.2973161,24.7884521 37.2973161,25.5347744" id="Fill-8" fill="#FCAB94" sketch:type="MSShapeGroup"></path>
                <path d="M25.54757,25.5347744 C25.54757,26.2813579 24.9425214,26.8866676 24.1959379,26.8866676 C23.4496156,26.8866676 22.8443058,26.2813579 22.8443058,25.5347744 C22.8443058,24.7884521 23.4496156,24.1834035 24.1959379,24.1834035 C24.9425214,24.1834035 25.54757,24.7884521 25.54757,25.5347744" id="Fill-9" fill="#FCAB94" sketch:type="MSShapeGroup"></path>
            </g>
        </g>
    </g>
</svg>