<?xml version="1.0" encoding="UTF-8" standalone="no"?>
<svg width="38px" height="45px" viewBox="0 0 38 45" version="1.1" xmlns="http://www.w3.org/2000/svg" xmlns:xlink="http://www.w3.org/1999/xlink" xmlns:sketch="http://www.bohemiancoding.com/sketch/ns">
    <!-- Generator: Sketch 3.4.2 (15857) - http://www.bohemiancoding.com/sketch -->
    <title>Imported Layers + mic Copy + Imported Layers</title>
    <desc>Created with Sketch.</desc>
    <defs></defs>
    <g id="Desktop-Screens" stroke="none" stroke-width="1" fill="none" fill-rule="evenodd" sketch:type="MSPage">
        <g id="LA01-01-D:--LANDING" sketch:type="MSArtboardGroup" transform="translate(-410.000000, -543.000000)">
            <g id="Imported-Layers-+-mic-Copy-+-Imported-Layers" sketch:type="MSLayerGroup" transform="translate(410.000000, 542.000000)">
                <g id="Imported-Layers-+-mic-Copy" sketch:type="MSShapeGroup">
                    <g id="Imported-Layers" transform="translate(19.000000, 23.741935) scale(-1, 1) rotate(-180.000000) translate(-19.000000, -23.741935) translate(0.000000, 0.241935)">
                        <path d="M36.0242344,1.24193548 L2.20605269,1.24193548 C1.05114361,1.24193548 0.115143613,2.12877608 0.115143613,3.2230285 L2.45137244e-13,43.9852121 C2.45137244e-13,45.07912 0.759999996,46.2419355 2.27999999,46.2419355 L27.3600001,46.2419355 C27.3600001,46.2419355 33.7302331,39.9367363 36.9153496,36.7841368 C37.2768997,36.4262777 38,35.7105596 38,35.7105596 L37.9999998,3.36419038 C37.9999998,1.85970815 37.1791434,1.24193548 36.0242344,1.24193548 Z" id="Fill-2" fill="#BD10E0"></path>
                        <path d="M38,35.2419355 L28.5714286,35.2419355 C27.672892,35.2419355 27,35.9148274 27,36.813364 L27,46.2419355 L38,35.2419355 Z" id="Fill-10" fill="#DC7EEF"></path>
                    </g>
                </g>
                <g id="Imported-Layers" transform="translate(12.000000, 12.000000)" fill="#FFFFFF" sketch:type="MSShapeGroup">
                    <path d="M15.9856849,7.4416245 C15.9900129,6.89831907 16.006038,6.36145508 15.8301119,5.82505956 C15.6589817,5.303655 15.5535898,4.77182704 15.3023336,4.26564768 C14.9829997,3.62267575 14.6136017,3.03100104 14.1013807,2.53910995 C13.6784094,2.13283133 13.2473671,1.71975993 12.7613478,1.39815685 C12.0639599,0.93659904 11.3216547,0.533014111 10.4862397,0.362491866 C9.85891811,0.234365948 9.23136258,0.0782490852 8.59632083,0.0239068312 C7.44145489,-0.0750569718 6.30705907,0.140789524 5.23009658,0.531491591 C4.29888137,0.869256808 3.42556737,1.35622899 2.72139508,2.08703861 C2.46850131,2.34961476 2.18110077,2.59157833 1.98330088,2.89174901 C1.69707005,3.32636993 1.44218775,3.79027007 1.24193145,4.27021524 C1.08390209,4.64885426 1.02319355,5.0690698 0.929147947,5.47324031 C0.834049597,5.88186127 0.924235117,6.24492374 1.22578929,6.54673406 C1.51049948,6.83179666 1.88211997,6.80263454 2.19478651,6.70285092 C2.52909288,6.59604029 2.74011062,6.37949109 2.77859446,6.01092412 C2.83333742,5.48787993 2.88854827,4.96940329 3.15524475,4.47259329 C3.52651432,3.78136919 4.03007939,3.23244215 4.64488496,2.78271315 C5.45012117,2.19384925 6.38180427,1.88161552 7.35992531,1.75594906 C8.27897541,1.63777808 9.20621357,1.69165187 10.090172,1.98983156 C10.8936537,2.26095725 11.6535047,2.65458724 12.2811772,3.22928 C13.1585852,4.032585 13.8425213,4.99563748 14.0042938,6.19959949 C14.1806878,7.51306582 14.1687566,8.83625286 13.642499,10.0933859 C13.4483252,10.5574032 13.2206974,11.007952 12.9930696,11.4568612 C12.8944621,11.6512753 12.7739808,11.8399507 12.63455,12.0069594 C12.2377805,12.4824541 11.8337588,12.9524444 11.4174549,13.41084 C11.1670176,13.6866504 10.883711,13.9323617 10.6233311,14.1993883 C10.0389382,14.7987927 9.41723131,15.3685666 8.89062274,16.0155205 C8.41127091,16.6046186 8.10363418,17.3168066 7.74488062,17.9897605 C7.51818861,18.4148949 7.24821691,18.8211736 6.95929573,19.2070738 C6.79916087,19.4208122 6.58030599,19.6071452 6.35302912,19.7503793 C5.70090944,20.1612254 4.97778767,20.3096126 4.20822796,20.2823243 C3.35924416,20.2523424 2.7339111,19.8534421 2.32567833,19.1348127 C2.11185326,18.7583989 1.90481257,18.3657058 1.88013145,17.9066075 C1.86995487,17.7184006 1.81415916,17.5148514 1.7203475,17.3524102 C1.49763255,16.966627 0.970556085,16.8298345 0.480559789,16.9960234 C0.195030794,17.092762 -0.0189112508,17.4644911 0.00132492947,17.8643283 C0.0373523487,18.5760478 0.244393037,19.2309657 0.605953923,19.8521539 C1.13782625,20.7661344 1.86808332,21.4429531 2.87837169,21.7441778 C4.78127447,22.3113751 6.51807681,21.9285199 8.03988436,20.6641255 C8.7232356,20.0963427 9.20141771,19.339416 9.56625382,18.5424353 C9.88851207,17.8386797 10.2437565,17.1702934 10.7729384,16.6095375 C11.3953472,15.9498179 12.0438407,15.314927 12.6786485,14.6669191 C12.8580838,14.4836311 13.0176338,14.2797305 13.205608,14.1062803 C13.9059202,13.4604976 14.4418866,12.6882286 14.9033417,11.8657164 C15.1295658,11.4625999 15.3419872,11.035006 15.460246,10.5916014 C15.6750069,9.78618825 15.8246142,8.9625049 15.9792514,8.14221795 C16.0218293,7.9162994 15.9856849,7.675507 15.9856849,7.4416245 L15.9856849,7.4416245 Z M8.63635667,3.01913625 C8.4737721,3.01913625 8.25007969,2.99741108 8.03137793,3.0235773 C7.55305102,3.08095095 7.0902506,3.24322955 6.71850198,3.56466602 C5.99408014,4.19073495 5.58229534,5.07678573 5.28008323,5.98852262 C4.97665118,6.90398039 4.48446133,7.60254657 3.77811676,8.18240451 C3.3862946,8.503961 3.08186442,8.94086493 3.00445376,9.5065595 C2.97195902,9.74373592 3.12090246,10.0372057 3.3328391,10.1467918 C3.63383127,10.3022288 3.92450942,10.4857524 4.23481749,10.614303 C4.80508342,10.8507593 4.85609905,11.4229354 4.6849749,12.0222379 C4.56131747,12.455661 4.20187914,12.6333033 3.89511998,12.8451537 C3.43464854,13.1632294 3.07010864,13.5363981 3.02552543,14.1547852 C2.99524876,14.5733248 3.03317777,14.9885036 3.30256244,15.3302249 C3.89489818,16.0818437 4.68320045,16.1026086 5.45065285,15.8675927 C6.38068983,15.582885 6.97468912,14.8075005 7.38935741,13.8952835 C7.53586097,13.5728868 7.60384483,13.1958771 7.64765173,12.8351913 C7.69656018,12.4322555 7.74358328,12.0054339 7.67271592,11.6142609 C7.55815258,10.9806302 7.31405392,10.3753262 7.1845186,9.74373592 C7.03258077,9.00291969 6.91646477,8.24986055 6.84271393,7.4954811 C6.81276998,7.18928826 6.92090091,6.86185037 6.99187917,6.55085639 C7.13150671,5.9388308 7.40377487,5.39894236 7.91980898,5.07990647 C8.65576479,4.62499826 9.44872501,4.61527594 10.2325911,4.91174647 C10.7415274,5.10415224 11.0502828,5.52029123 11.1279153,6.11503271 C11.1621845,6.37825533 11.1809272,6.64747937 11.2494656,6.90037953 C11.2865074,7.03721208 11.3941947,7.17932589 11.5067618,7.25422371 C11.5750783,7.2995945 11.7730411,7.25830468 11.8091957,7.19096866 C11.9061254,7.01008563 12.0209105,6.78311164 11.9967335,6.59418669 C11.9267534,6.04757666 11.7994362,5.50876849 11.6803258,4.97056046 C11.5744129,4.49176656 11.2828475,4.10599479 10.9573457,3.81780624 C10.3133289,3.24731053 9.55940673,2.91447135 8.63635667,3.01913625 L8.63635667,3.01913625 Z" id="Fill-1"></path>
                    <path d="M15.9856849,7.4416245 C15.9856849,7.675507 16.0218293,7.9162994 15.9792514,8.14221795 C15.8246142,8.9625049 15.6750069,9.78618825 15.460246,10.5916014 C15.3419872,11.035006 15.1295658,11.4625999 14.9033417,11.8657164 C14.4418866,12.6882286 13.9059202,13.4604976 13.205608,14.1062803 C13.0176338,14.2797305 12.8580838,14.4836311 12.6786485,14.6669191 C12.0438407,15.314927 11.3953472,15.9498179 10.7729384,16.6095375 C10.2437565,17.1702934 9.88851207,17.8386797 9.56625382,18.5424353 C9.20141771,19.339416 8.7232356,20.0963427 8.03988436,20.6641255 C6.51807681,21.9285199 4.78127447,22.3113751 2.87837169,21.7441778 C1.86808332,21.4429531 1.13782625,20.7661344 0.605953923,19.8521539 C0.244393037,19.2309657 0.0373523487,18.5760478 0.00132492947,17.8643283 C-0.0189112508,17.4644911 0.195030794,17.092762 0.480559789,16.9960234 C0.970556085,16.8298345 1.49763255,16.966627 1.7203475,17.3524102 C1.81415916,17.5148514 1.86995487,17.7184006 1.88013145,17.9066075 C1.90481257,18.3657058 2.11185326,18.7583989 2.32567833,19.1348127 C2.7339111,19.8534421 3.35924416,20.2523424 4.20822796,20.2823243 C4.97778767,20.3096126 5.70090944,20.1612254 6.35302912,19.7503793 C6.58030599,19.6071452 6.79916087,19.4208122 6.95929573,19.2070738 C7.24821691,18.8211736 7.51818861,18.4148949 7.74488062,17.9897605 C8.10363418,17.3168066 8.41127091,16.6046186 8.89062274,16.0155205 C9.41723131,15.3685666 10.0389382,14.7987927 10.6233311,14.1993883 C10.883711,13.9323617 11.1670176,13.6866504 11.4174549,13.41084 C11.8337588,12.9524444 12.2377805,12.4824541 12.63455,12.0069594 C12.7739808,11.8399507 12.8944621,11.6512753 12.9930696,11.4568612 C13.2206974,11.007952 13.4483252,10.5574032 13.642499,10.0933859 C14.1687566,8.83625286 14.1806878,7.51306582 14.0042938,6.19959949 C13.8425213,4.99563748 13.1585852,4.032585 12.2811772,3.22928 C11.6535047,2.65458724 10.8936537,2.26095725 10.090172,1.98983156 C9.20621357,1.69165187 8.27897541,1.63777808 7.35992531,1.75594906 C6.38180427,1.88161552 5.45012117,2.19384925 4.64488496,2.78271315 C4.03007939,3.23244215 3.52651432,3.78136919 3.15524475,4.47259329 C2.88854827,4.96940329 2.83333742,5.48787993 2.77859446,6.01092412 C2.74011062,6.37949109 2.52909288,6.59604029 2.19478651,6.70285092 C1.88211997,6.80263454 1.51049948,6.83179666 1.22578929,6.54673406 C0.924235117,6.24492374 0.834049597,5.88186127 0.929147947,5.47324031 C1.02319355,5.0690698 1.08390209,4.64885426 1.24193145,4.27021524 C1.44218775,3.79027007 1.69707005,3.32636993 1.98330088,2.89174901 C2.18110077,2.59157833 2.46850131,2.34961476 2.72139508,2.08703861 C3.42556737,1.35622899 4.29888137,0.869256808 5.23009658,0.531491591 C6.30705907,0.140789524 7.44145489,-0.0750569718 8.59632083,0.0239068312 C9.23136258,0.0782490852 9.85891811,0.234365948 10.4862397,0.362491866 C11.3216547,0.533014111 12.0639599,0.93659904 12.7613478,1.39815685 C13.2473671,1.71975993 13.6784094,2.13283133 14.1013807,2.53910995 C14.6136017,3.03100104 14.9829997,3.62267575 15.3023336,4.26564768 C15.5535898,4.77182704 15.6589817,5.303655 15.8301119,5.82505956 C16.006038,6.36145508 15.9900129,6.89831907 15.9856849,7.4416245" id="Fill-2"></path>
                    <path d="M8.63635667,3.01913625 C9.55940673,2.91447135 10.3133289,3.24731053 10.9573457,3.81780624 C11.2828475,4.10599479 11.5744129,4.49176656 11.6803258,4.97056046 C11.7994362,5.50876849 11.9267534,6.04757666 11.9967335,6.59418669 C12.0209105,6.78311164 11.9061254,7.01008563 11.8091957,7.19096866 C11.7730411,7.25830468 11.5750783,7.2995945 11.5067618,7.25422371 C11.3941947,7.17932589 11.2865074,7.03721208 11.2494656,6.90037953 C11.1809272,6.64747937 11.1621845,6.37825533 11.1279153,6.11503271 C11.0502828,5.52029123 10.7415274,5.10415224 10.2325911,4.91174647 C9.44872501,4.61527594 8.65576479,4.62499826 7.91980898,5.07990647 C7.40377487,5.39894236 7.13150671,5.9388308 6.99187917,6.55085639 C6.92090091,6.86185037 6.81276998,7.18928826 6.84271393,7.4954811 C6.91646477,8.24986055 7.03258077,9.00291969 7.1845186,9.74373592 C7.31405392,10.3753262 7.55815258,10.9806302 7.67271592,11.6142609 C7.74358328,12.0054339 7.69656018,12.4322555 7.64765173,12.8351913 C7.60384483,13.1958771 7.53586097,13.5728868 7.38935741,13.8952835 C6.97468912,14.8075005 6.38068983,15.582885 5.45065285,15.8675927 C4.68320045,16.1026086 3.89489818,16.0818437 3.30256244,15.3302249 C3.03317777,14.9885036 2.99524876,14.5733248 3.02552543,14.1547852 C3.07010864,13.5363981 3.43464854,13.1632294 3.89511998,12.8451537 C4.20187914,12.6333033 4.56131747,12.455661 4.6849749,12.0222379 C4.85609905,11.4229354 4.80508342,10.8507593 4.23481749,10.614303 C3.92450942,10.4857524 3.63383127,10.3022288 3.3328391,10.1467918 C3.12090246,10.0372057 2.97195902,9.74373592 3.00445376,9.5065595 C3.08186442,8.94086493 3.3862946,8.503961 3.77811676,8.18240451 C4.48446133,7.60254657 4.97665118,6.90398039 5.28008323,5.98852262 C5.58229534,5.07678573 5.99408014,4.19073495 6.71850198,3.56466602 C7.0902506,3.24322955 7.55305102,3.08095095 8.03137793,3.0235773 C8.25007969,2.99741108 8.4737721,3.01913625 8.63635667,3.01913625" id="Fill-3"></path>
                </g>
            </g>
        </g>
    </g>
</svg>