<?xml version="1.0" encoding="UTF-8" standalone="no"?>
<svg width="60px" height="60px" viewBox="0 0 60 60" version="1.1" xmlns="http://www.w3.org/2000/svg" xmlns:xlink="http://www.w3.org/1999/xlink" xmlns:sketch="http://www.bohemiancoding.com/sketch/ns">
    <!-- Generator: Sketch 3.4.2 (15857) - http://www.bohemiancoding.com/sketch -->
    <title>Clock</title>
    <desc>Created with Sketch.</desc>
    <defs></defs>
    <g id="Desktop-Screens" stroke="none" stroke-width="1" fill="none" fill-rule="evenodd" sketch:type="MSPage">
        <g id="LA01-01-D:--LANDING" sketch:type="MSArtboardGroup" transform="translate(-690.000000, -208.000000)">
            <g id="Clock" sketch:type="MSLayerGroup" transform="translate(690.000000, 208.000000)">
                <path d="M3.12666019e-05,30.0346703 C-0.0236318754,13.4700905 13.3872498,0.0252988257 29.956345,2.89970262e-05 C46.5250323,-0.0227552747 59.9767125,13.3843387 59.9999676,29.94809 C60.0240388,46.5126699 46.6119331,59.9587043 30.0424299,59.9827313 C13.4737427,60.0067584 0.0236944086,46.5984216 3.12666019e-05,30.0346703" id="Fill-2" fill="#495C6D" sketch:type="MSShapeGroup"></path>
                <path d="M29.9655765,6.2051353 C29.826666,6.20595409 29.6148578,6.21332318 29.4455733,6.21823591 C16.4236233,6.58300612 6.08268676,17.1036174 6.10172115,30.025735 C6.12075554,42.9662752 16.5196052,53.4684638 29.4455733,53.7611807 C29.6197177,53.7820598 29.8602799,53.777147 30.0344243,53.777147 C43.2329487,53.7574961 53.9173141,43.0952344 53.8982797,29.9565474 C53.8796503,16.8215449 43.1645059,6.18753135 29.9655765,6.2051353 L43.1019129,17.4592445" id="Fill-3" fill="#F5F5F5" sketch:type="MSShapeGroup"></path>
                <path d="M29.039523,30.1674221 C29.0582387,43.1261465 39.282977,53.6430929 51.9925214,53.936221 C52.1199474,53.9558996 52.2832119,53.9542597 52.4293535,53.9530298 L52.4293535,30.4562456 M53.3921704,6.48990363 C53.2585271,6.4923747 53.0892455,6.49814051 52.9479076,6.50225895 L52.9479076,6.50225895 C52.89931,6.50349448 52.859622,6.50473001 52.8272236,6.5055537" id="Fill-4" fill="#77CAEE" sketch:type="MSShapeGroup" transform="translate(41.667849, 30.133777) rotate(-180.000000) translate(-41.667849, -30.133777) "></path>
                <path d="M39.4260458,30.0750549 C39.872041,30.3706542 39.99067,30.9664004 39.6905842,31.4062852 L39.6351965,31.4877301 C39.4905271,31.6994039 39.2669094,31.84617 39.0131179,31.8945408 C38.7593264,31.9437385 38.496028,31.8912334 38.2815039,31.749015 L20.9641584,20.2681872 C20.5185765,19.9725879 20.4003609,19.3776686 20.69962,18.9386106 L20.7004467,18.9369569 C20.859583,18.7037849 21.1063478,18.5417221 21.3865931,18.4879768 C21.6664252,18.433818 21.9574174,18.4916976 22.1938486,18.6483859 L39.4260458,30.0750549" id="Fill-5" fill="#495C6D" sketch:type="MSShapeGroup" transform="translate(29.999905, 25.164638) rotate(57.000000) translate(-29.999905, -25.164638) "></path>
                <path d="M28.9255372,41.0855875 L28.4448767,40.7615556 C28.2339043,40.6187829 28.0881269,40.3973818 28.0399394,40.1457709 C27.9917519,39.8945737 28.0452036,39.6342722 28.1881464,39.4232169 L42.068991,18.9173356 C42.3650001,18.4807409 42.9549937,18.3661089 43.3907062,18.6603447 L43.8713668,18.9847905 C44.0823391,19.1271493 44.2285215,19.3485504 44.276304,19.6001614 C44.3248965,19.8513586 44.2714448,20.1116601 44.128097,20.323543 L30.2468475,40.8294244 C29.9512433,41.2660191 29.3608448,41.3806511 28.9255372,41.0855875 Z" id="Fill-7" fill="#495C6D" sketch:type="MSShapeGroup" transform="translate(36.159086, 29.818574) rotate(55.000000) translate(-36.159086, -29.818574) "></path>
                <path d="M28.4745788,9.82690001 C28.4730738,8.97015222 29.1551774,8.27504029 29.9971783,8.2734861 C30.8403079,8.27232046 31.5242926,8.96548965 31.5254212,9.82223744 C31.5269262,10.6793738 30.8444464,11.3748743 30.0020693,11.3760399 C29.1593159,11.3772055 28.4757074,10.6824822 28.4745788,9.82690001" id="Fill-8" fill="#989898" sketch:type="MSShapeGroup"></path>
                <path d="M7.11864795,30.5115793 C7.11676703,29.6545521 7.79916256,28.9579747 8.64181194,28.9571977 C9.48446132,28.9560322 10.1679854,29.6510556 10.1694901,30.5069173 C10.1706187,31.3635561 9.48822315,32.0585795 8.64632613,32.059745 C7.80367675,32.0624645 7.11940031,31.3666641 7.11864795,30.5115793" id="Fill-9" fill="#989898" sketch:type="MSShapeGroup"></path>
                <path d="M47.7966116,30.5109991 C47.7954834,29.6544656 48.4780034,28.9583622 49.31959,28.9571969 C50.1623047,28.95642 50.8459528,29.6498042 50.847457,30.5063377 C50.8482091,31.3624827 50.1664412,32.0581977 49.3237265,32.0597515 C48.4821399,32.0609168 47.7981157,31.3667557 47.7966116,30.5109991" id="Fill-10" fill="#989898" sketch:type="MSShapeGroup"></path>
                <path d="M28.4745777,49.1255635 C28.4734491,48.2703699 29.1550928,47.5737037 29.9973667,47.5725381 C30.8400168,47.5713725 31.5242938,48.2649302 31.5254223,49.1209009 C31.5265509,49.9780372 30.844531,50.6739263 30.0022571,50.6750919 C29.1599832,50.6762575 28.4757062,49.9826998 28.4745777,49.1255635" id="Fill-11" fill="#989898" sketch:type="MSShapeGroup"></path>
                <path d="M26.4406803,29.9947555 C26.4386393,28.2813297 27.8024171,26.8926239 29.4874439,26.8888285 C31.1720625,26.8862982 32.5395141,28.2728954 32.5423714,29.9863212 C32.5440042,31.7005905 31.1806346,33.0914048 29.4956078,33.0939351 C27.8109891,33.0964654 26.4435376,31.7098682 26.4406803,29.9947555" id="Fill-12" fill="#495C6D" sketch:type="MSShapeGroup"></path>
            </g>
        </g>
    </g>
</svg>