<?xml version="1.0" encoding="UTF-8" standalone="no"?>
<svg width="33px" height="35px" viewBox="0 0 33 35" version="1.1" xmlns="http://www.w3.org/2000/svg" xmlns:xlink="http://www.w3.org/1999/xlink" xmlns:sketch="http://www.bohemiancoding.com/sketch/ns">
    <!-- Generator: Sketch 3.4.2 (15857) - http://www.bohemiancoding.com/sketch -->
    <title>Icon - Microphone disabled</title>
    <desc>Created with Sketch.</desc>
    <defs></defs>
    <g id="Desktop-Screens" stroke="none" stroke-width="1" fill="none" fill-rule="evenodd" sketch:type="MSPage">
        <g id="SU01-21-D:--MIC-DISABLED" sketch:type="MSArtboardGroup" transform="translate(-432.000000, -249.000000)" fill="#000000">
            <g id="Icon---Microphone-disabled" sketch:type="MSLayerGroup" transform="translate(426.000000, 244.000000)">
                <g id="mic-off" transform="translate(6.000000, 5.000000)" sketch:type="MSShapeGroup">
                    <path d="M28.757896,16.1763165 L25.7023696,16.1763165 C25.7023696,17.4344745 25.3428959,18.6926324 24.9834222,19.7710535 L27.1402644,21.9278957 C28.2186855,20.3102641 28.757896,18.3331587 28.757896,16.1763165 L28.757896,16.1763165 Z" id="Shape"></path>
                    <path d="M21.568422,16.5357902 L21.568422,16.1763165 L21.568422,5.3921055 C21.568422,2.33657905 19.231843,0 16.1763165,0 C13.1207901,0 10.784211,2.33657905 10.784211,5.3921055 L10.784211,5.7515792 L21.568422,16.5357902 L21.568422,16.5357902 Z" id="Shape"></path>
                    <path d="M2.33657905,1.7973685 L0,4.13394755 L10.784211,14.9181586 L10.784211,16.1763165 C10.784211,19.231843 13.1207901,21.568422 16.1763165,21.568422 C16.5357902,21.568422 16.8952639,21.568422 17.4344745,21.3886852 L20.4900009,24.4442116 C19.231843,24.9834222 17.7939482,25.3428959 16.3560534,25.3428959 C11.3234216,25.3428959 6.83000031,21.568422 6.83000031,16.1763165 L3.594737,16.1763165 C3.594737,22.2873694 8.44763196,27.3200012 14.378948,28.2186855 L14.378948,34.1500015 L17.973685,34.1500015 L17.973685,28.2186855 C19.5913167,28.0389486 21.2089483,27.3200012 22.4671063,26.6010538 L30.016054,34.1500015 L32.352633,31.8134225 L2.33657905,1.7973685 L2.33657905,1.7973685 Z" id="Shape"></path>
                </g>
            </g>
        </g>
    </g>
</svg>